<svg width="63" height="55" viewBox="0 0 63 55" fill="none" xmlns="http://www.w3.org/2000/svg">
<path d="M31.5 0C14.1012 0 0 11.4297 0 25.5357C0 31.625 2.6332 37.1987 7.01367 41.5815C5.47559 47.769 0.332227 53.2813 0.270703 53.3426C0 53.625 -0.0738281 54.0424 0.0861328 54.4107C0.246094 54.779 0.590625 55 0.984375 55C9.14238 55 15.2578 51.096 18.2848 48.6897C22.3084 50.1998 26.775 51.0714 31.5 51.0714C48.8988 51.0714 63 39.6417 63 25.5357C63 11.4297 48.8988 0 31.5 0ZM15.75 29.4643C13.5721 29.4643 11.8125 27.7087 11.8125 25.5357C11.8125 23.3627 13.5721 21.6071 15.75 21.6071C17.9279 21.6071 19.6875 23.3627 19.6875 25.5357C19.6875 27.7087 17.9279 29.4643 15.75 29.4643ZM31.5 29.4643C29.3221 29.4643 27.5625 27.7087 27.5625 25.5357C27.5625 23.3627 29.3221 21.6071 31.5 21.6071C33.6779 21.6071 35.4375 23.3627 35.4375 25.5357C35.4375 27.7087 33.6779 29.4643 31.5 29.4643ZM47.25 29.4643C45.0721 29.4643 43.3125 27.7087 43.3125 25.5357C43.3125 23.3627 45.0721 21.6071 47.25 21.6071C49.4279 21.6071 51.1875 23.3627 51.1875 25.5357C51.1875 27.7087 49.4279 29.4643 47.25 29.4643Z" fill="white"/>
</svg>
