<svg width="32" height="29" viewBox="0 0 32 29" fill="none" xmlns="http://www.w3.org/2000/svg">
<path d="M31.0874 20.4924L24.0873 17.7736C23.7883 17.6581 23.4559 17.6338 23.1403 17.7043C22.8247 17.7748 22.5428 17.9363 22.3373 18.1645L19.2372 21.5969C14.372 19.5181 10.4566 15.9697 8.16264 11.5606L11.9502 8.75118C12.2025 8.56522 12.3811 8.30982 12.4589 8.02365C12.5367 7.73748 12.5095 7.43613 12.3815 7.16522L9.38141 0.821356C9.24086 0.529317 8.99226 0.290877 8.6785 0.14715C8.36473 0.00342407 8.00546 -0.0365794 7.66263 0.0340378L1.16252 1.39344C0.831995 1.46261 0.5371 1.63126 0.325965 1.87188C0.11483 2.1125 -7.61395e-05 2.41086 3.78519e-08 2.71828C3.78519e-08 17.2469 12.994 29 29.0005 29C29.3398 29.0002 29.6692 28.8961 29.9348 28.7048C30.2005 28.5134 30.3867 28.2461 30.463 27.9465L31.9631 22.0557C32.0405 21.7435 31.9954 21.4166 31.8356 21.1313C31.6758 20.846 31.4112 20.6201 31.0874 20.4924Z" fill="white"/>
</svg>
